HIERARCHY
ROOT Hips
{
	OFFSET -3.958830 18.904000 13.208200
	CHANNELS 6 Xposition Yposition Zposition Zrotation Yrotation Xrotation 
	JOINT LHipJoint
	{
		OFFSET 0.000000 0.000000 0.000000
		CHANNELS 3 Zrotation Yrotation Xrotation
		JOINT LeftUpLeg
		{
			OFFSET 1.800000 -1.400000 0.085000
			CHANNELS 3 Zrotation Yrotation Xrotation
			JOINT LeftLeg
			{
				OFFSET 2.215000 -6.000000 0.000000
				CHANNELS 3 Zrotation Yrotation Xrotation
				JOINT LeftFoot
				{
					OFFSET 2.500000 -6.900000 0.000000
					CHANNELS 3 Zrotation Yrotation Xrotation
					JOINT LeftToeBase
					{
						OFFSET 0.200000 -0.500000 1.950000
						CHANNELS 3 Zrotation Yrotation Xrotation
						End Site
						{
							OFFSET 0.000000 0.000000 0.000000
						}
					}
				}
			}
		}
	}
	JOINT RHipJoint
	{
		OFFSET 0.000000 0.000000 0.000000
		CHANNELS 3 Zrotation Yrotation Xrotation
		JOINT RightUpLeg
		{
			OFFSET -1.800000 -1.400000 0.085000
			CHANNELS 3 Zrotation Yrotation Xrotation
			JOINT RightLeg
			{
				OFFSET -2.215000 -6.000000 0.000000
				CHANNELS 3 Zrotation Yrotation Xrotation
				JOINT RightFoot
				{
					OFFSET -2.500000 -6.900000 0.000000
					CHANNELS 3 Zrotation Yrotation Xrotation
					JOINT RightToeBase
					{
						OFFSET -0.200000 -0.500000 1.950000
						CHANNELS 3 Zrotation Yrotation Xrotation
						End Site
						{
							OFFSET 0.000000 0.000000 0.000000
						}
					}
				}
			}
		}
	}
	JOINT LowerBack
	{
		OFFSET 0.000000 0.000000 0.000000
		CHANNELS 3 Zrotation Yrotation Xrotation
		JOINT Spine
		{
			OFFSET -0.087000 1.940000 -0.288900
			CHANNELS 3 Zrotation Yrotation Xrotation
			JOINT Spine1
			{
				OFFSET 0.000000 1.950000 0.060000
				CHANNELS 3 Zrotation Yrotation Xrotation
				JOINT Neck
				{
					OFFSET 0.000000 0.000000 0.000000
					CHANNELS 3 Zrotation Yrotation Xrotation
					JOINT Neck1
					{
						OFFSET 0.000000 1.600000 0.340000
						CHANNELS 3 Zrotation Yrotation Xrotation
						JOINT Head
						{
							OFFSET 0.000000 1.667000 -0.240000
							CHANNELS 3 Zrotation Yrotation Xrotation
							End Site
							{
								OFFSET 0.000000 0.000000 0.000000
							}
						}
					}
				}
				JOINT LeftShoulder
				{
					OFFSET 0.000000 0.000000 0.000000
					CHANNELS 3 Zrotation Yrotation Xrotation
					JOINT LeftArm
					{
						OFFSET 2.700000 1.550000 -0.730000
						CHANNELS 3 Zrotation Yrotation Xrotation
						JOINT LeftForeArm
						{
							OFFSET 5.450000 0.000000 0.000000
							CHANNELS 3 Zrotation Yrotation Xrotation
							JOINT LeftHand
							{
								OFFSET 3.450000 0.000000 0.000000
								CHANNELS 3 Zrotation Yrotation Xrotation
								JOINT LeftHandIndex1
								{
									OFFSET 0.750000 0.000000 0.000000
									CHANNELS 3 Zrotation Yrotation Xrotation
									End Site
									{
										OFFSET 0.000000 0.000000 0.000000
									}
								}
							}
						}
					}
				}
				JOINT RightShoulder
				{
					OFFSET 0.000000 0.000000 0.000000
					CHANNELS 3 Zrotation Yrotation Xrotation
					JOINT RightArm
					{
						OFFSET -2.700000 1.550000 -0.730000
						CHANNELS 3 Zrotation Yrotation Xrotation
						JOINT RightForeArm
						{
							OFFSET -5.450000 0.000000 0.000000
							CHANNELS 3 Zrotation Yrotation Xrotation
							JOINT RightHand
							{
								OFFSET -3.450000 0.000000 0.000000
								CHANNELS 3 Zrotation Yrotation Xrotation
								JOINT RightHandIndex1
								{
									OFFSET -0.750000 0.000000 0.000000
									CHANNELS 3 Zrotation Yrotation Xrotation
									End Site
									{
										OFFSET 0.000000 0.000000 0.000000
									}
								}
							}
						}
					}
				}
			}
		}
	}
}
MOTION
Frames: 7
Frame Time: 0.016667
1.062930 17.160730 -2.460000 -33.045863 84.711797 -32.064967 -15.856429 13.271745 2.970190 4.036125 -2.054672 -15.978599 -10.313152 6.218845 11.783356 -0.322765 3.913689 3.321235 0.547630 0.313350 0.451220 17.655842 -9.764929 3.573103 -4.523655 8.411395 -28.607868 8.433028 -13.754652 55.446224 -1.263358 -9.044648 1.378019 0.228960 0.179080 0.133150 -4.327590 -1.580246 -7.757681 8.659073 -0.875492 12.383413 -1.766916 -0.026002 6.444814 1.016014 -2.744736 -8.735922 -6.077689 2.660838 30.202254 -2.570740 2.909490 -5.198380 -10.740351 -1.766049 2.817335 -36.709624 -6.286677 -1.507689 -50.684307 -62.749671 28.075658 -3.612168 3.641128 0.237850 0.176240 -0.091880 0.235670 8.784415 4.482015 4.764945 41.981011 3.792702 -7.011316 32.848116 59.769982 14.366141 2.013234 -2.036548 -0.104710 0.113230 -0.248370 -0.154130 
1.013610 17.161380 -2.450510 -33.955501 84.453209 -33.036775 -15.886713 13.215412 2.925225 4.313344 -2.060186 -16.304731 -10.244630 6.174378 11.614358 -0.360758 3.921632 3.320375 0.556480 0.336590 0.442990 17.653537 -9.664899 3.627320 -4.420907 8.872501 -29.054147 8.154855 -14.312471 57.904896 -1.368542 -9.530327 1.233953 0.264540 0.210130 0.138000 -4.421304 -1.476667 -7.778540 9.194825 -0.861651 12.236480 -1.835469 -0.024457 7.015662 0.903320 -2.639673 -8.520713 -5.789068 2.621180 29.811521 -2.916040 3.032390 -5.040460 -9.652716 -1.782751 2.682178 -35.319956 -8.497732 -0.390234 -48.037461 -67.845967 29.268137 -3.650977 3.660483 0.210270 0.212820 -0.114960 0.243380 7.885714 4.390908 4.472333 40.707840 5.853535 -6.199818 29.297731 63.435340 13.952935 1.945433 -2.079675 -0.115620 0.129890 -0.240970 -0.150970 
0.964880 17.155580 -2.439420 -34.307151 84.175059 -33.314122 -15.918399 13.147366 2.883979 4.577464 -2.100638 -16.790758 -10.200873 6.157378 11.590661 -0.396985 3.940663 3.318889 0.574200 0.362930 0.444160 17.649581 -9.587813 3.662190 -4.287787 9.256063 -29.418865 7.826667 -14.695902 59.896209 -1.448653 -9.925185 1.116982 0.304550 0.246010 0.147840 -4.518003 -1.362543 -7.776489 9.672162 -0.823967 11.854864 -1.837014 -0.036798 7.498911 0.757448 -2.552971 -8.190914 -5.482882 2.652084 29.169140 -3.231800 3.184960 -4.661120 -8.505075 -1.522672 2.496593 -34.018048 -10.635293 0.742334 -43.049341 -72.969085 28.539716 -3.688343 3.683985 0.174220 0.255640 -0.143950 0.255200 7.003458 4.045544 4.016250 39.195858 8.010894 -5.300874 24.750130 66.797448 12.679461 1.871571 -2.131380 -0.124420 0.141980 -0.240240 -0.147660 
0.917350 17.147770 -2.425060 -33.545416 83.844764 -32.458755 -15.948541 13.068582 2.852541 4.874149 -2.140464 -17.320584 -10.273962 6.196869 11.685043 -0.435225 3.987326 3.308834 0.578180 0.375310 0.433940 17.641677 -9.556612 3.672540 -4.137055 9.548112 -29.523543 7.460497 -14.861594 61.311698 -1.493938 -10.205079 1.034331 0.339710 0.291700 0.156600 -4.611713 -1.248339 -7.760131 10.040094 -0.710721 11.377979 -1.784414 0.002765 7.900702 0.602943 -2.468575 -7.825964 -5.190490 2.713661 28.588569 -3.574900 3.355020 -4.125500 -7.409342 -1.288828 2.299938 -32.662097 -12.589556 1.630453 -33.419888 -77.737361 23.601090 -3.720227 3.688135 0.137200 0.304970 -0.180330 0.263170 6.203801 3.753793 3.505567 37.640646 10.224881 -4.538428 18.226828 69.492190 9.755529 1.787518 -2.154701 -0.140530 0.158130 -0.228800 -0.144590 
0.871490 17.138850 -2.408230 -31.633106 83.402599 -30.425004 -15.974497 12.980264 2.829009 5.141121 -2.173577 -17.862661 -10.359739 6.247650 11.838554 -0.469473 4.031556 3.296611 0.582250 0.391300 0.417900 17.632019 -9.583307 3.653311 -3.917051 9.725403 -29.341369 6.987832 -14.693768 62.004839 -1.499148 -10.328406 0.997227 0.375170 0.337200 0.168980 -4.709799 -1.127338 -7.722617 10.372240 -0.498512 10.813573 -1.760836 0.123982 8.186817 0.455778 -2.398649 -7.387051 -4.929833 2.782320 28.019790 -3.882760 3.488090 -3.576950 -6.505033 -1.096019 1.973420 -31.082790 -14.321404 2.046581 -15.565378 -81.332799 10.776292 -3.728876 3.651380 0.095850 0.355460 -0.215680 0.273190 5.580184 3.520442 2.993358 35.951239 12.221049 -3.939974 10.125908 71.776700 5.360644 1.698154 -2.151745 -0.151410 0.170020 -0.216940 -0.137590 
0.824550 17.128290 -2.389040 -28.727081 82.854426 -27.418811 -15.989021 12.884318 2.815831 5.388955 -2.206415 -18.410165 -10.489905 6.324432 12.089413 -0.494821 4.078648 3.280947 0.595300 0.410560 0.410850 17.627040 -9.662075 3.611745 -3.686186 9.803948 -28.911737 6.473686 -14.253419 62.021903 -1.474927 -10.306461 1.000575 0.406360 0.373860 0.188090 -4.805309 -1.010737 -7.673404 10.657299 -0.236753 10.284528 -1.870290 0.295565 8.401713 0.338389 -2.386252 -6.965383 -4.788416 2.956757 27.563853 -4.071000 3.627080 -3.150250 -5.775762 -1.201811 1.563025 -29.269468 -15.533209 1.568863 13.481692 -83.052281 -12.614264 -3.689854 3.439291 0.060930 0.397900 -0.242330 0.285260 5.068680 3.625948 2.588087 34.274894 14.007913 -3.637210 -0.069122 73.539698 -0.883105 1.603117 -2.099501 -0.153740 0.173480 -0.211550 -0.130920 
0.778100 17.117610 -2.367090 -24.655456 82.153713 -23.321380 -15.980798 12.787602 2.814452 5.562419 -2.220054 -18.886215 -10.674763 6.437074 12.427633 -0.511429 4.123664 3.265010 0.604810 0.433290 0.399110 17.636218 -9.805789 3.539079 -3.460292 9.743414 -28.161400 5.766616 -13.454351 61.384983 -1.413006 -10.124905 1.053545 0.435850 0.405610 0.197370 -4.871653 -0.915527 -7.604309 10.720307 0.096303 9.849949 -1.925468 0.532384 8.495180 0.205954 -2.460899 -6.528906 -4.820343 3.243477 27.269618 -4.154780 3.763100 -2.861260 -5.273617 -1.518020 1.067820 -27.279351 -16.309957 0.602668 41.469860 -82.433305 -34.054283 -3.586243 2.860446 0.029230 0.431750 -0.263770 0.297610 4.816772 4.047930 2.220175 32.280941 15.628678 -3.484193 -11.368314 74.464341 -8.096751 1.508760 -1.974205 -0.156520 0.182630 -0.208330 -0.121140 
